# xmcd
#
# Track frame offsets:
#	172
#	13093
#	24225
#	35268
#	45537
#	54972
#	65755
#	75149
#
# Disc length: 1252 seconds
#
# Revision: 1
# Processed by: cddbd v1.5.2PL0 Copyright (c) Steve Scherf et al.
# Submitted via: audiograbber 1.83.01
#
DISCID=5104e208
DTITLE=Tina Rauch - Honky Tonk Merry Go Round
DYEAR=1994
DGENRE=Country
TTITLE0=Honky tonk merry go round
TTITLE1=I fall to pieces
TTITLE2=Chocolate icecream com
TTITLE3=Country roads
TTITLE4=Walking after midnight
TTITLE5=Grandma's yodel
TTITLE6=I love you honeyTrack  7
TTITLE7=Gospel medley
EXTD=
EXTT0=
EXTT1=
EXTT2=
EXTT3=
EXTT4=
EXTT5=
EXTT6=
EXTT7=
PLAYORDER=
